<svg width="512" height="512" viewBox="0 0 512 512" fill="none" xmlns="http://www.w3.org/2000/svg">
<rect width="512" height="512" fill="#445FC1"/>
<path d="M448.614 117.124C412.157 65.1915 357.659 30.5648 295.159 19.6213C232.658 8.67782 169.637 22.7282 117.705 59.1849C65.773 95.6407 31.1454 150.139 20.2019 212.639L83.5181 223.725C99.9956 129.616 189.964 66.459 284.073 82.9366C378.181 99.4141 441.339 189.383 424.86 283.491C408.382 377.6 318.414 440.757 224.306 424.279C209.775 421.734 195.802 417.428 182.572 411.434L208.507 378.341L69.0862 364.039L116.297 496L142.081 463.1C164.273 474.977 188.153 483.206 213.22 487.594C275.72 498.538 338.741 484.486 390.673 448.03C442.605 411.575 477.233 357.077 488.176 294.576C499.12 232.077 485.07 169.057 448.614 117.124Z" fill="white"/>
<g opacity="0.1">
<path opacity="0.1" d="M149.845 69.8977C201.777 33.441 264.798 19.3907 327.298 30.3342C333.523 31.4245 339.666 32.7595 345.722 34.3129C329.647 27.6407 312.72 22.6954 295.159 19.6213C232.658 8.67782 169.637 22.7282 117.705 59.1849C65.773 95.6416 31.1454 150.139 20.2019 212.639L53.2648 218.428C65.1318 157.993 99.2813 105.393 149.845 69.8977Z" fill="black"/>
</g>
<path d="M336.5 340.756C335.465 340.756 334.43 340.365 333.648 339.583L285.348 291.283C283.784 289.719 283.784 287.166 285.348 285.579C286.912 284.015 289.465 284.015 291.052 285.579L339.352 333.879C340.916 335.443 340.916 337.996 339.352 339.583C338.57 340.365 337.535 340.756 336.5 340.756Z" fill="white"/>
<path d="M366.331 323L301.931 258.6C300.804 257.473 299.378 256.714 297.814 256.392L282.956 253.425L279.989 238.567C279.414 235.646 277.275 233.3 274.423 232.449C273.664 232.219 272.859 232.104 272.1 232.104C270.007 232.104 267.937 232.932 266.396 234.45L260.025 240.821L199.65 180.446V175.731C199.65 173.592 198.799 171.545 197.281 170.027L173.131 145.877C171.567 144.313 169.52 143.531 167.45 143.531C165.38 143.531 163.333 144.313 161.769 145.9L145.669 162C142.518 165.151 142.518 170.234 145.669 173.385L169.819 197.535C171.337 199.053 173.384 199.904 175.5 199.904H180.215L240.59 260.256L234.196 266.65C232.103 268.743 231.321 271.825 232.195 274.677C233.046 277.529 235.415 279.645 238.313 280.243L253.171 283.21L256.138 298.068C256.46 299.632 257.219 301.058 258.346 302.185L322.746 366.585C324.264 368.103 326.311 368.954 328.427 368.954C349.127 368.954 368.677 349.404 368.677 328.704C368.7 326.542 367.849 324.495 366.331 323ZM151.35 167.681L167.45 151.581L172.648 156.779L156.548 172.879L151.35 167.681ZM183.55 191.831H175.5L162.252 178.583L178.352 162.483L191.6 175.731V183.781L254.344 246.525L246.294 254.575L183.55 191.831ZM328.45 360.881L264.05 296.481L260.025 276.356L239.9 272.331L272.1 240.131L276.125 260.256L296.25 264.281L360.65 328.681C360.65 344.781 344.55 360.881 328.45 360.881Z" fill="white"/>
<path d="M252.25 279.598L202.294 329.554C200.799 331.049 199.948 333.096 199.948 335.212C199.948 341.629 197.441 347.655 192.91 352.186C183.549 361.547 168.3 361.547 158.939 352.186C154.408 347.655 151.901 341.606 151.901 335.212C151.901 328.795 154.408 322.769 158.939 318.238C163.493 313.684 169.519 311.2 175.936 311.2C178.052 311.2 180.099 310.349 181.594 308.854L238.979 251.469L235.966 247.329L233.114 246.018L175.936 303.196C167.748 303.196 159.537 306.324 153.281 312.58C147.025 318.836 143.897 327.024 143.897 335.235C143.897 343.446 147.025 351.634 153.281 357.89C165.793 370.402 186.056 370.402 198.568 357.89C204.824 351.634 207.952 343.446 207.952 335.258L258.759 284.451C258.782 284.405 254.044 281.001 252.25 279.598Z" fill="white"/>
<path d="M363.801 171.36L336.063 199.121H312.051V175.086L339.789 147.348C333.763 144.634 327.093 143.07 320.055 143.07C293.536 143.07 272.008 164.575 272.008 191.117C272.008 195.97 272.744 200.639 274.078 205.055L245.788 233.345L246.593 234.541L252.113 238.359L277.367 213.105C281.944 221.983 289.189 229.228 298.067 233.805L278.609 253.24L281.07 256.23L285.486 257.679L306.094 237.071C310.51 238.405 315.179 239.141 320.032 239.141C346.551 239.141 368.079 217.636 368.079 191.094C368.079 184.056 366.538 177.386 363.801 171.36ZM320.055 231.137C297.975 231.137 280.035 213.174 280.035 191.117C280.035 169.037 297.998 151.097 320.055 151.097C321.55 151.097 323.022 151.189 324.494 151.35L306.37 169.428C304.875 170.923 304.024 172.97 304.024 175.086V199.098C304.024 203.514 307.612 207.102 312.028 207.102H336.04C338.156 207.102 340.203 206.251 341.698 204.756L359.799 186.655C359.96 188.127 360.052 189.599 360.052 191.094C360.075 213.174 342.112 231.137 320.055 231.137Z" fill="white"/>
<path d="M195.947 311.201C195.947 312.213 196.338 313.248 197.12 314.03C198.684 315.594 201.214 315.594 202.778 314.03L241.625 275.183H239.141L233.759 271.618L227.48 277.989L197.12 308.372C196.338 309.154 195.947 310.166 195.947 311.201Z" fill="white"/>
<path d="M275.941 239.854L274.837 241.97C275.435 241.372 275.803 240.613 275.941 239.854Z" fill="white"/>
<path d="M175.937 319.203C167.105 319.203 159.929 326.379 159.929 335.211C159.929 344.043 167.105 351.219 175.937 351.219C184.769 351.219 191.945 344.043 191.945 335.211C191.945 326.379 184.769 319.203 175.937 319.203ZM175.937 343.215C171.521 343.215 167.933 339.627 167.933 335.211C167.933 330.795 171.521 327.207 175.937 327.207C180.353 327.207 183.941 330.795 183.941 335.211C183.941 339.627 180.353 343.215 175.937 343.215Z" fill="white"/>
</svg>
